<svg width="178" height="178" viewBox="0 0 178 178" fill="none" xmlns="http://www.w3.org/2000/svg">
<rect x="18.9773" y="42.9773" width="139.773" height="92.0455" stroke="#131313" stroke-width="7.95455"/>
<rect x="87.7273" y="41.2727" width="2.27273" height="92.0455" fill="#131313"/>
<path d="M26.3636 59.4545C26.1173 59.7316 24.4457 61.6641 25.0063 61.6641C28.6539 61.6641 33.3455 50.1068 34.1919 58.5707C34.3051 59.7021 33.8931 64.5076 36.0859 62.6742C37.9426 61.1219 40.0109 57.1023 42.5252 56.6452C43.9562 56.385 44.3542 58.8645 45.1136 59.6439C47.126 61.7093 49.6119 57.3712 51.5215 57.3712C52.3275 57.3712 51.509 59.6882 52.5947 59.9596C53.6165 60.2151 54.9508 59.6698 55.9091 60.149C59.0087 61.6988 61.6399 57.8741 64.7475 59.7386C66.6418 60.8753 68.7496 59.7396 70.5555 58.9495C72.2007 58.2297 72.7881 58.8568 74.5328 58.8864C77.2146 58.9318 79.3589 58.2491 81.9192 57.529C82.7894 57.2843 84.217 57.1818 82.6136 57.1818" stroke="#131313" stroke-width="3.40909" stroke-linecap="round"/>
<path d="M25.7955 74.7955C25.7955 77.1566 25.3877 83.0989 29.2677 82.1187C30.3058 81.8564 36.5601 77.3473 36.9066 77.8258C37.6115 78.7993 36.4625 80.9142 38.1692 81.0455C42.029 81.3424 44.0883 84.0869 47.5758 81.5505C49.8322 79.9095 53.3571 80.0207 56.0354 79.9091C59.3214 79.7722 61.4608 78.307 64.6843 79.3409C65.5696 79.6249 68.1015 80.8816 68.9773 80.2248C69.337 79.955 69.9965 78.8553 70.1136 79.9091C70.4625 83.0493 74.4861 81.1 76.2374 80.4773C76.6886 80.3169 79.7451 78.7065 80.2146 79.5935C80.6269 80.3721 80.4467 80.8143 79.7727 80.4773" stroke="#131313" stroke-width="3.40909" stroke-linecap="round"/>
<path d="M34.3182 99.7954C34.5353 100.772 36.1575 101.675 36.9697 102.068C38.3263 102.725 39.7145 102.863 41.1679 102.415C42.7326 101.934 44.7978 99.5429 46.3447 99.5429C47.4727 99.5429 46.1551 103.078 47.2285 103.078C48.5854 103.078 50.008 101.152 51.3636 101.626C52.9405 102.178 54.789 102.636 56.4773 102.636C57.9677 102.636 64.9418 101.471 63.8636 100.932" stroke="#131313" stroke-width="3.40909" stroke-linecap="round"/>
<path d="M33.1818 120.25C37.9794 120.25 43.2381 121.497 47.9545 120.692C50.3211 120.288 52.0188 121.353 54.2677 121.229C56.1164 121.126 58.3145 118.441 59.9811 119.524C61.5691 120.556 62.8559 122.582 64.8737 121.386C66.0838 120.669 67.2696 120.709 68.6932 120.881C70.6182 121.115 71.5509 122.633 73.3965 121.639C74.3139 121.145 74.1438 122.212 73.5227 122.523" stroke="#131313" stroke-width="3.40909" stroke-linecap="round"/>
<path d="M96.25 60.0227C95.4786 60.8798 94.2716 63.636 95.9028 64.3156C99.1109 65.6523 102.445 58.4633 105.088 62.3586C107.385 65.7434 109.854 63.7848 113.169 63.6843C116.119 63.595 118.521 64.1754 121.503 63.6843C123.817 63.3031 124.963 64.1167 126.995 64.5682C129.959 65.2268 131.998 63.831 134.855 63.4949C138.648 63.0487 146.25 62.2954 146.25 62.2954" stroke="#131313" stroke-width="3.40909" stroke-linecap="round"/>
<path d="M97.9545 78.7727C99.3547 80.1729 100.526 82.4027 102.532 81.0139C104.972 79.3244 105.379 81.2809 107.077 82.9078C108.892 84.6474 111.615 83.2915 113.801 83.4129C116.128 83.5422 117.49 84.0441 119.893 83.6338C125.147 82.7367 129.834 85.0918 134.823 83.1288C137.977 81.8879 142.563 81.9704 145.682 82.75" stroke="#131313" stroke-width="3.40909" stroke-linecap="round"/>
<path d="M93.4091 98.6591C93.5163 100.053 94.0276 104.642 96.0922 104.309C97.4669 104.088 98.4009 102.751 99.7222 102.384C101.434 101.908 102.958 104.235 104.583 104.593C107.629 105.264 110.054 102.941 113.074 103.268C115.296 103.508 117.301 104.239 119.577 104.183C123.069 104.097 126.695 102.844 130.183 103.331C131.82 103.559 131.37 104.769 133.119 103.962C134.965 103.11 136.411 102.636 138.422 102.636C139.854 102.636 149.612 103.678 149.091 102.636" stroke="#131313" stroke-width="3.40909" stroke-linecap="round"/>
<path d="M97.3864 123.659C98.9052 123.48 99.4978 121.995 100.922 121.513C103.784 120.542 104.23 125.026 106.477 125.869C109.144 126.869 111.62 123.731 114.179 123.596C115.463 123.528 118.853 123.63 120.019 124.038C122.876 125.038 125.749 124.999 128.92 124.764C130.555 124.643 134.318 123.292 134.318 124.227" stroke="#131313" stroke-width="3.40909" stroke-linecap="round"/>
</svg>
